# xmcd
#
# Track frame offsets:
#	150
#	12031
#	23950
#	35129
#	47647
#	61003
#	73388
#	84802
#	97330
#	110087
#	119314
#
# Disc length: 1764 seconds
#
# Revision: 1
# Processed by: cddbd v1.5.1PL0 Copyright (c) Steve Scherf et al.
# Submitted via: audiograbber 1.83.01
#
DISCID=9306e20b
DTITLE=Carl Smith - Country Gentleman Sings His Favorites
DYEAR=1967
DGENRE=Country
TTITLE0=It's Such A Pretty World Today
TTITLE1=Thanks A Lot
TTITLE2=Life Turned Her That Way
TTITLE3=I Should Get Away Awhile (From You)
TTITLE4=Someday I'll Sober Up
TTITLE5=All the World Is Lonely Now
TTITLE6=Release Me (And Let Me Love Again)
TTITLE7=Here Comes My Baby Back Again
TTITLE8=Buried Alive
TTITLE9=Mighty Day
TTITLE10=You're the Only Good Thing
EXTD=Columbia CS-9487
EXTT0=
EXTT1=
EXTT2=
EXTT3=
EXTT4=
EXTT5=
EXTT6=
EXTT7=
EXTT8=
EXTT9=
EXTT10=
PLAYORDER=
